<svg width="16" height="16" viewBox="0 0 16 16" fill="none" xmlns="http://www.w3.org/2000/svg">
<path d="M10.1666 4.66667C10.1666 5.86328 9.19654 6.83333 7.99992 6.83333V7.83333C9.74882 7.83333 11.1666 6.41557 11.1666 4.66667H10.1666ZM7.99992 6.83333C6.8033 6.83333 5.83325 5.86328 5.83325 4.66667H4.83325C4.83325 6.41557 6.25102 7.83333 7.99992 7.83333V6.83333ZM5.83325 4.66667C5.83325 3.47005 6.8033 2.5 7.99992 2.5V1.5C6.25102 1.5 4.83325 2.91776 4.83325 4.66667H5.83325ZM7.99992 2.5C9.19654 2.5 10.1666 3.47005 10.1666 4.66667H11.1666C11.1666 2.91776 9.74882 1.5 7.99992 1.5V2.5ZM12.1666 11.6667C12.1666 12.0196 11.8675 12.4737 11.0761 12.8694C10.3147 13.2501 9.22779 13.5 7.99992 13.5V14.5C9.34937 14.5 10.5958 14.2276 11.5234 13.7638C12.421 13.315 13.1666 12.6024 13.1666 11.6667H12.1666ZM7.99992 13.5C6.77205 13.5 5.68513 13.2501 4.92369 12.8694C4.13235 12.4737 3.83325 12.0196 3.83325 11.6667H2.83325C2.83325 12.6024 3.57883 13.315 4.47648 13.7638C5.40404 14.2276 6.65046 14.5 7.99992 14.5V13.5ZM3.83325 11.6667C3.83325 11.3137 4.13235 10.8596 4.92369 10.464C5.68513 10.0832 6.77205 9.83333 7.99992 9.83333V8.83333C6.65046 8.83333 5.40404 9.10576 4.47648 9.56954C3.57883 10.0184 2.83325 10.7309 2.83325 11.6667H3.83325ZM7.99992 9.83333C9.22779 9.83333 10.3147 10.0832 11.0761 10.464C11.8675 10.8596 12.1666 11.3137 12.1666 11.6667H13.1666C13.1666 10.7309 12.421 10.0184 11.5234 9.56954C10.5958 9.10576 9.34937 8.83333 7.99992 8.83333V9.83333Z" fill="#0D0E11"/>
</svg>
