<svg width="25" height="24" viewBox="0 0 25 24" fill="none" xmlns="http://www.w3.org/2000/svg">
<path d="M3.5 20.25C3.08579 20.25 2.75 20.5858 2.75 21C2.75 21.4142 3.08579 21.75 3.5 21.75V20.25ZM21.5 21.75C21.9142 21.75 22.25 21.4142 22.25 21C22.25 20.5858 21.9142 20.25 21.5 20.25V21.75ZM7.81963 17.9881L7.71356 17.2456H7.71356L7.81963 17.9881ZM6.51193 16.6804L5.76946 16.5743L6.51193 16.6804ZM7.65616 11.94L7.12583 11.4096H7.12583L7.65616 11.94ZM7.00231 13.2477L7.74478 13.3537L7.00231 13.2477ZM12.56 16.8438L13.0904 17.3742L12.56 16.8438ZM11.2523 17.4977L11.3584 18.2401H11.3584L11.2523 17.4977ZM20.8229 5.31171L20.2926 5.84204V5.84204L20.8229 5.31171ZM20.8229 8.58096L20.2926 8.05063L20.8229 8.58096ZM19.1883 3.67708L19.7186 3.14675V3.14675L19.1883 3.67708ZM15.919 3.67708L16.4494 4.20741L15.919 3.67708ZM15.0344 5.31171C15.0344 4.8975 14.6986 4.56171 14.2844 4.56171C13.8702 4.56171 13.5344 4.8975 13.5344 5.31171H15.0344ZM19.1883 10.9656C19.6025 10.9656 19.9383 10.6298 19.9383 10.2156C19.9383 9.80137 19.6025 9.46559 19.1883 9.46559V10.9656ZM3.5 21.75H21.5V20.25H3.5V21.75ZM18.658 4.20741L20.2926 5.84204L21.3532 4.78138L19.7186 3.14675L18.658 4.20741ZM20.2926 8.05063L12.0297 16.3135L13.0904 17.3742L21.3532 9.11129L20.2926 8.05063ZM8.18649 12.4703L16.4494 4.20741L15.3887 3.14675L7.12583 11.4096L8.18649 12.4703ZM11.1463 16.7552L7.71356 17.2456L7.92569 18.7305L11.3584 18.2401L11.1463 16.7552ZM7.25439 16.7864L7.74478 13.3537L6.25985 13.1416L5.76946 16.5743L7.25439 16.7864ZM7.71356 17.2456C7.44571 17.2839 7.21612 17.0543 7.25439 16.7864L5.76946 16.5743C5.58978 17.8321 6.66789 18.9102 7.92569 18.7305L7.71356 17.2456ZM7.12583 11.4096C6.6574 11.8781 6.35354 12.4858 6.25985 13.1416L7.74478 13.3537C7.79256 13.0192 7.94756 12.7092 8.18649 12.4703L7.12583 11.4096ZM12.0297 16.3135C11.7908 16.5524 11.4808 16.7074 11.1463 16.7552L11.3584 18.2401C12.0142 18.1465 12.6219 17.8426 13.0904 17.3742L12.0297 16.3135ZM20.2926 5.84204C20.9025 6.45192 20.9025 7.44074 20.2926 8.05063L21.3532 9.11129C22.5489 7.91562 22.5489 5.97705 21.3532 4.78138L20.2926 5.84204ZM19.7186 3.14675C18.5229 1.95108 16.5844 1.95108 15.3887 3.14675L16.4494 4.20741C17.0593 3.59753 18.0481 3.59753 18.658 4.20741L19.7186 3.14675ZM14.2844 5.31171C13.5344 5.31171 13.5344 5.31209 13.5344 5.31246C13.5344 5.3126 13.5344 5.31299 13.5344 5.31326C13.5344 5.3138 13.5344 5.31436 13.5344 5.31495C13.5344 5.31614 13.5344 5.31742 13.5344 5.31881C13.5345 5.32158 13.5345 5.32477 13.5346 5.32836C13.5347 5.33553 13.5349 5.34431 13.5352 5.35465C13.5359 5.37533 13.5371 5.40226 13.5393 5.43503C13.5436 5.50055 13.5519 5.58957 13.5675 5.69873C13.5987 5.91692 13.6593 6.21669 13.7772 6.57052C14.014 7.28079 14.4798 8.20236 15.3887 9.11129L16.4494 8.05063C15.7237 7.32494 15.3722 6.61189 15.2003 6.09618C15.1139 5.83703 15.0723 5.62598 15.0524 5.4866C15.0425 5.41697 15.038 5.36552 15.0359 5.33525C15.0349 5.32013 15.0346 5.31035 15.0344 5.30629C15.0344 5.30426 15.0344 5.30366 15.0344 5.30455C15.0344 5.30499 15.0344 5.30581 15.0344 5.307C15.0344 5.30759 15.0344 5.30828 15.0344 5.30907C15.0344 5.30946 15.0344 5.30988 15.0344 5.31032C15.0344 5.31054 15.0344 5.31089 15.0344 5.311C15.0344 5.31135 15.0344 5.31171 14.2844 5.31171ZM15.3887 9.11129C16.2976 10.0202 17.2192 10.486 17.9295 10.7228C18.2833 10.8407 18.5831 10.9013 18.8013 10.9325C18.9104 10.9481 18.9995 10.9564 19.065 10.9607C19.0977 10.9629 19.1247 10.9641 19.1453 10.9648C19.1557 10.9651 19.1645 10.9653 19.1716 10.9654C19.1752 10.9655 19.1784 10.9655 19.1812 10.9656C19.1826 10.9656 19.1839 10.9656 19.185 10.9656C19.1856 10.9656 19.1862 10.9656 19.1867 10.9656C19.187 10.9656 19.1874 10.9656 19.1875 10.9656C19.1879 10.9656 19.1883 10.9656 19.1883 10.2156C19.1883 9.46559 19.1886 9.46559 19.189 9.46559C19.1891 9.46559 19.1895 9.46559 19.1897 9.46559C19.1901 9.46559 19.1905 9.46559 19.1909 9.46559C19.1917 9.4656 19.1924 9.4656 19.193 9.46561C19.1942 9.46561 19.195 9.46563 19.1955 9.46563C19.1963 9.46565 19.1957 9.46564 19.1937 9.46558C19.1896 9.46545 19.1799 9.46507 19.1647 9.46406C19.1345 9.46204 19.083 9.45753 19.0134 9.44759C18.874 9.42767 18.663 9.38613 18.4038 9.29975C17.8881 9.12785 17.1751 8.77632 16.4494 8.05063L15.3887 9.11129Z" fill="#5E6371"/>
</svg>
