<svg width="25" height="24" viewBox="0 0 25 24" fill="none" xmlns="http://www.w3.org/2000/svg">
<path d="M16.2916 1.64383C16.0949 1.12776 15.517 0.868872 15.001 1.06558C14.4849 1.26229 14.226 1.8401 14.4227 2.35617L16.2916 1.64383ZM8.70844 22.3562C8.90515 22.8722 9.48297 23.1311 9.99903 22.9344C10.5151 22.7377 10.774 22.1599 10.5773 21.6438L8.70844 22.3562ZM16.5352 5.09076L16.0301 5.9538C16.3963 6.16811 16.8578 6.12805 17.1815 5.85385C17.5053 5.57966 17.6208 5.13103 17.4697 4.73459L16.5352 5.09076ZM8.46473 18.9092L8.96987 18.0462C8.60372 17.8319 8.14219 17.8719 7.81844 18.1461C7.49469 18.4203 7.3792 18.869 7.53031 19.2654L8.46473 18.9092ZM4.70465 16.5007C4.98119 16.9788 5.59292 17.1421 6.07098 16.8656C6.54904 16.5891 6.71241 15.9773 6.43586 15.4993L4.70465 16.5007ZM20.2953 7.49927C20.0188 7.02121 19.4071 6.85785 18.929 7.13439C18.451 7.41094 18.2876 8.02267 18.5641 8.50073L20.2953 7.49927ZM19.5 12C19.5 15.866 16.366 19 12.5 19V21C17.4706 21 21.5 16.9706 21.5 12H19.5ZM5.5 12C5.5 8.13401 8.63401 5 12.5 5V3C7.52944 3 3.5 7.02944 3.5 12H5.5ZM12.5 5C13.7894 5 14.9945 5.34769 16.0301 5.9538L17.0404 4.22772C15.7067 3.44712 14.154 3 12.5 3V5ZM17.4697 4.73459L16.2916 1.64383L14.4227 2.35617L15.6008 5.44693L17.4697 4.73459ZM12.5 19C11.2106 19 10.0054 18.6523 8.96987 18.0462L7.95959 19.7723C9.29329 20.5529 10.8459 21 12.5 21V19ZM7.53031 19.2654L8.70844 22.3562L10.5773 21.6438L9.39915 18.553L7.53031 19.2654ZM6.43586 15.4993C5.84086 14.4707 5.5 13.2767 5.5 12H3.5C3.5 13.6376 3.9383 15.1759 4.70465 16.5007L6.43586 15.4993ZM18.5641 8.50073C19.1591 9.52931 19.5 10.7233 19.5 12H21.5C21.5 10.3624 21.0617 8.82407 20.2953 7.49927L18.5641 8.50073Z" fill="#67D278"/>
</svg>
